<svg width="100" height="100" viewBox="0 0 100 100" fill="none" xmlns="http://www.w3.org/2000/svg">
<path d="M18.4447 85.0031L11.4229 6.25H88.5791L81.5478 84.9906L49.9541 93.75L18.4447 85.0031Z" fill="#E44F26"/>
<path d="M50 87.0551L75.5313 79.977L81.5375 12.6895H50V87.0551Z" fill="#F1662A"/>
<path d="M50 41.8977H37.2187L36.3375 32.007H50V22.3477H25.7812L26.0125 24.9414L28.3844 51.557H50V41.8977V41.8977Z" fill="#EBEBEB"/>
<path d="M49.9998 66.9814L49.9561 66.9939L39.1998 64.0908L38.5123 56.3877H28.8154L30.1686 71.5502L49.9561 77.0439L49.9998 77.0314V66.9814Z" fill="#EBEBEB"/>
<path d="M49.9658 41.8975V51.5568H61.8596L60.7408 64.085L49.9658 66.9912V77.0412L69.7689 71.5506L69.9127 69.9193L72.1814 44.4912L72.4189 41.8975H49.9658V41.8975Z" fill="white"/>
<path d="M49.9658 22.3477V32.007H73.2971L73.4908 29.8383L73.9314 24.9414L74.1627 22.3477H49.9658V22.3477Z" fill="white"/>
</svg>
