<svg width="164" height="100" viewBox="0 0 164 100" fill="none" xmlns="http://www.w3.org/2000/svg">
<g clip-path="url(#clip0)">
<path d="M80.6078 99.7113C80.0559 99.7113 79.5406 99.5642 79.0619 99.3065L74.1667 96.3989C73.4304 95.9938 73.7986 95.8466 74.0196 95.7731C75.0132 95.4419 75.1973 95.368 76.2279 94.7794C76.3384 94.7056 76.4858 94.7425 76.596 94.8161L80.3505 97.0613C80.4976 97.1349 80.6817 97.1349 80.7919 97.0613L95.4782 88.5587C95.6253 88.4852 95.6992 88.3377 95.6992 88.154V71.1858C95.6992 71.0014 95.6253 70.8546 95.4782 70.7807L80.7919 62.3151C80.6447 62.2412 80.4607 62.2412 80.3505 62.3151L65.6642 70.7807C65.517 70.8543 65.4431 71.0384 65.4431 71.1855V88.1537C65.4431 88.3011 65.517 88.4849 65.6642 88.5587L69.6763 90.8775C71.8479 91.9817 73.2097 90.6935 73.2097 89.4052V72.6578C73.2097 72.4371 73.3938 72.2161 73.6514 72.2161H75.5285C75.7495 72.2161 75.9702 72.4001 75.9702 72.6578V89.4052C75.9702 92.3129 74.3874 94.0062 71.6269 94.0062C70.7804 94.0062 70.118 94.0062 68.2406 93.0858L64.3759 90.8775C63.4189 90.3256 62.8301 89.2947 62.8301 88.1906V71.2224C62.8301 70.1183 63.4189 69.0874 64.3759 68.5355L79.0619 60.0329C79.9823 59.5177 81.2339 59.5177 82.154 60.0329L96.84 68.5355C97.797 69.0874 98.3861 70.1183 98.3861 71.2224V88.1906C98.3861 89.2947 97.797 90.3256 96.84 90.8775L82.154 99.3801C81.6753 99.6011 81.1234 99.7113 80.6081 99.7113H80.6078ZM85.1352 88.0435C78.6941 88.0435 77.3689 85.0989 77.3689 82.596C77.3689 82.375 77.553 82.1543 77.8107 82.1543H79.7247C79.9454 82.1543 80.1294 82.3014 80.1294 82.5224C80.424 84.4731 81.2705 85.4301 85.1721 85.4301C88.2638 85.4301 89.5893 84.7307 89.5893 83.0744C89.5893 82.1173 89.2209 81.4183 84.3992 80.9396C80.3871 80.5345 77.8842 79.6514 77.8842 76.4492C77.8842 73.4677 80.3874 71.7008 84.5833 71.7008C89.2944 71.7008 91.6135 73.3205 91.9081 76.8536C91.9081 76.9645 91.8712 77.0747 91.7976 77.1852C91.7237 77.2587 91.6135 77.3323 91.503 77.3323H89.589C89.4049 77.3323 89.2208 77.1852 89.1842 77.0011C88.7425 74.9769 87.6014 74.3142 84.5833 74.3142C81.197 74.3142 80.7919 75.4922 80.7919 76.3753C80.7919 77.4428 81.2705 77.774 85.8345 78.3629C90.3619 78.9521 92.497 79.7986 92.497 82.9638C92.46 86.203 89.81 88.0435 85.1352 88.0435Z" fill="#539E43"/>
<path d="M35.0404 33.3479C35.0404 32.6854 34.6723 32.0593 34.0834 31.7281L18.4771 22.7472C18.2191 22.5998 17.9248 22.5262 17.6306 22.4893H17.4831C17.1888 22.4893 16.8943 22.5998 16.6366 22.7472L1.03025 31.7281C0.441077 32.0593 0.0732422 32.6851 0.0732422 33.3479L0.110185 57.4934C0.110185 57.8246 0.294261 58.1558 0.588529 58.3033C0.883115 58.4873 1.25095 58.4873 1.50891 58.3033L10.7844 53.003C11.3732 52.6717 11.7414 52.0459 11.7414 51.3835V40.0835C11.7414 39.4211 12.1092 38.7953 12.6984 38.4641L16.6366 36.1819C16.9312 35.9979 17.2624 35.924 17.5936 35.924C17.9248 35.924 18.256 35.9979 18.514 36.1819L22.4522 38.4641C23.0414 38.7953 23.4092 39.4208 23.4092 40.0835V51.3835C23.4092 52.0459 23.7774 52.6717 24.3662 53.003L33.6417 58.3033C33.9363 58.4873 34.3041 58.4873 34.5987 58.3033C34.8933 58.1558 35.0774 57.8246 35.0774 57.4934L35.0404 33.3479Z" fill="#333333"/>
<path d="M110.054 0.110589C109.76 -0.0368631 109.392 -0.0368631 109.134 0.110589C108.839 0.294666 108.655 0.588933 108.655 0.920143V24.8453C108.655 25.066 108.545 25.2867 108.324 25.4342C108.103 25.5443 107.882 25.5443 107.662 25.4342L103.76 23.1889C103.474 23.0261 103.151 22.9404 102.821 22.9404C102.492 22.9404 102.169 23.0261 101.883 23.1889L86.2763 32.2068C85.6875 32.538 85.3193 33.1638 85.3193 33.8262V51.8249C85.3193 52.4873 85.6875 53.1134 86.2763 53.4447L101.883 62.4625C102.169 62.6254 102.492 62.711 102.821 62.711C103.151 62.711 103.474 62.6254 103.76 62.4625L119.366 53.4447C119.955 53.1134 120.323 52.4876 120.323 51.8249V6.95677C120.323 6.2574 119.955 5.63193 119.366 5.3004L110.054 0.110589H110.054ZM108.619 45.8991C108.619 46.0832 108.545 46.2303 108.398 46.3039L103.061 49.3956C102.986 49.432 102.904 49.4509 102.821 49.4509C102.738 49.4509 102.657 49.432 102.582 49.3956L97.2451 46.3039C97.0977 46.2303 97.0241 46.0462 97.0241 45.8991V39.7154C97.0241 39.5313 97.0977 39.3841 97.2451 39.3106L102.582 36.2185C102.657 36.1822 102.738 36.1633 102.821 36.1633C102.904 36.1633 102.986 36.1822 103.061 36.2185L108.398 39.3106C108.545 39.3838 108.619 39.5682 108.619 39.7154V45.8991Z" fill="#333333"/>
<path d="M161.989 39.5681C162.578 39.2369 162.909 38.6111 162.909 37.9484V33.5685C162.909 32.906 162.541 32.2802 161.989 31.949L146.493 22.9681C146.207 22.8053 145.884 22.7197 145.555 22.7197C145.226 22.7197 144.902 22.8053 144.616 22.9681L129.01 31.9857C128.421 32.3169 128.053 32.9427 128.053 33.6054V51.6041C128.053 52.2666 128.421 52.8923 129.01 53.2236L144.506 62.0573C145.095 62.3885 145.794 62.3885 146.346 62.0573L155.732 56.8312C156.026 56.6838 156.21 56.3525 156.21 56.0213C156.21 55.6901 156.026 55.3589 155.732 55.2115L140.052 46.1936C139.758 46.0099 139.573 45.7153 139.573 45.3841V39.7525C139.573 39.4213 139.758 39.0901 140.052 38.9427L144.947 36.1452C145.091 36.055 145.256 36.0072 145.426 36.0072C145.595 36.0072 145.761 36.055 145.904 36.1452L150.8 38.9427C151.094 39.1267 151.278 39.421 151.278 39.7525V44.1694C151.278 44.5006 151.462 44.8318 151.757 44.979C152.051 45.163 152.419 45.163 152.714 44.979L161.989 39.5681V39.5681Z" fill="#333333"/>
<path d="M145.316 38.7221C145.371 38.6862 145.435 38.667 145.5 38.667C145.565 38.667 145.629 38.6862 145.684 38.7221L148.665 40.452C148.776 40.5253 148.849 40.6358 148.849 40.7833V44.2431C148.849 44.3903 148.776 44.5008 148.665 44.5743L145.684 46.3043C145.629 46.3402 145.565 46.3594 145.5 46.3594C145.435 46.3594 145.371 46.3402 145.316 46.3043L142.334 44.5743C142.224 44.5008 142.15 44.3903 142.15 44.2431V40.7833C142.15 40.6358 142.224 40.5253 142.334 40.452L145.316 38.7221V38.7221Z" fill="#539E43"/>
<mask id="mask0" mask-type="alpha" maskUnits="userSpaceOnUse" x="42" y="22" width="36" height="41">
<path d="M61.1371 23.0414C60.8511 22.8786 60.5276 22.793 60.1985 22.793C59.8694 22.793 59.546 22.8786 59.26 23.0414L43.7641 31.985C43.175 32.3162 42.8438 32.942 42.8438 33.6044V51.5299C42.8438 52.1923 43.2119 52.8181 43.7641 53.1493L59.26 62.0936C59.546 62.2564 59.8694 62.342 60.1985 62.342C60.5276 62.342 60.8511 62.2564 61.1371 62.0936L76.6332 53.1493C77.2221 52.8181 77.5536 52.1923 77.5536 51.5299V33.6048C77.5536 32.9423 77.1852 32.3165 76.6332 31.9853L61.1371 23.0414Z" fill="white"/>
</mask>
<g mask="url(#mask0)">
<path d="M61.1371 23.0414C60.8511 22.8786 60.5276 22.793 60.1985 22.793C59.8694 22.793 59.546 22.8786 59.26 23.0414L43.7641 31.985C43.175 32.3162 42.8438 32.942 42.8438 33.6044V51.5299C42.8438 52.1923 43.2119 52.8181 43.7641 53.1493L59.26 62.0936C59.546 62.2564 59.8694 62.342 60.1985 62.342C60.5276 62.342 60.8511 62.2564 61.1371 62.0936L76.6332 53.1493C77.2221 52.8181 77.5536 52.1923 77.5536 51.5299V33.6048C77.5536 32.9423 77.1852 32.3165 76.6332 31.9853L61.1371 23.0414Z" fill="url(#paint0_linear)"/>
<path d="M76.6697 31.9854L61.1003 23.0415C60.9473 22.9642 60.7869 22.9026 60.6216 22.8574L43.1748 52.7453C43.3193 52.9218 43.4939 53.0713 43.6904 53.187L59.2598 62.1313C59.7016 62.389 60.2168 62.4625 60.6952 62.3151L77.0748 32.3539C76.9643 32.2068 76.8168 32.096 76.6697 31.9858V31.9854Z" fill="url(#paint1_linear)"/>
<path fill-rule="evenodd" clip-rule="evenodd" d="M76.7067 53.1499C77.1484 52.8923 77.4796 52.4505 77.6271 51.9722L60.5478 22.8206C60.106 22.747 59.6274 22.7837 59.2229 23.0413L43.7637 31.949L60.4372 62.3518C60.6797 62.3121 60.9153 62.2378 61.1366 62.1311L76.7064 53.1502L76.7067 53.1499Z" fill="url(#paint2_linear)"/>
<path fill-rule="evenodd" clip-rule="evenodd" d="M76.7068 53.1502L61.174 62.0945C60.9547 62.2063 60.7184 62.2809 60.4746 62.3152L60.7692 62.8674L77.995 52.8929V52.6719L77.5533 51.9355C77.4797 52.4508 77.1485 52.8926 76.7068 53.1502V53.1502Z" fill="url(#paint3_linear)"/>
<path fill-rule="evenodd" clip-rule="evenodd" d="M76.7068 53.1502L61.174 62.0945C60.9547 62.2063 60.7184 62.2809 60.4746 62.3152L60.7692 62.8674L77.995 52.8929V52.6719L77.5533 51.9355C77.4797 52.4508 77.1485 52.8926 76.7068 53.1502V53.1502Z" fill="url(#paint4_linear)"/>
</g>
</g>
<defs>
<linearGradient id="paint0_linear" x1="66.5117" y1="29.7089" x2="49.5268" y2="56.3973" gradientUnits="userSpaceOnUse">
<stop stop-color="#41873F"/>
<stop offset="0.3288" stop-color="#418B3D"/>
<stop offset="0.6352" stop-color="#419637"/>
<stop offset="0.9319" stop-color="#3FA92D"/>
<stop offset="1" stop-color="#3FAE2A"/>
</linearGradient>
<linearGradient id="paint1_linear" x1="57.8457" y1="44.6673" x2="100.384" y2="21.5562" gradientUnits="userSpaceOnUse">
<stop offset="0.1376" stop-color="#41873F"/>
<stop offset="0.4032" stop-color="#54A044"/>
<stop offset="0.7136" stop-color="#66B848"/>
<stop offset="0.9081" stop-color="#6CC04A"/>
</linearGradient>
<linearGradient id="paint2_linear" x1="42.2774" y1="42.5683" x2="78.1347" y2="42.5683" gradientUnits="userSpaceOnUse">
<stop offset="0.09192" stop-color="#6CC04A"/>
<stop offset="0.2864" stop-color="#66B848"/>
<stop offset="0.5968" stop-color="#54A044"/>
<stop offset="0.8624" stop-color="#41873F"/>
</linearGradient>
<linearGradient id="paint3_linear" x1="42.2778" y1="57.4315" x2="78.1346" y2="57.4315" gradientUnits="userSpaceOnUse">
<stop offset="0.09192" stop-color="#6CC04A"/>
<stop offset="0.2864" stop-color="#66B848"/>
<stop offset="0.5968" stop-color="#54A044"/>
<stop offset="0.8624" stop-color="#41873F"/>
</linearGradient>
<linearGradient id="paint4_linear" x1="83.3585" y1="28.8618" x2="74.2746" y2="76.4614" gradientUnits="userSpaceOnUse">
<stop stop-color="#41873F"/>
<stop offset="0.3288" stop-color="#418B3D"/>
<stop offset="0.6352" stop-color="#419637"/>
<stop offset="0.9319" stop-color="#3FA92D"/>
<stop offset="1" stop-color="#3FAE2A"/>
</linearGradient>
<clipPath id="clip0">
<rect width="163.057" height="100" fill="white"/>
</clipPath>
</defs>
</svg>
