<svg width="100" height="100" viewBox="0 0 100 100" fill="none" xmlns="http://www.w3.org/2000/svg">
<g clip-path="url(#clip0)">
<path d="M88.2526 63.5182L98.9713 68.8807C100.346 69.5682 100.346 71.5307 98.9713 72.2182L51.6714 95.8745C51.1531 96.1331 50.5818 96.2677 50.0026 96.2677C49.4234 96.2677 48.8521 96.1331 48.3338 95.8745L1.03385 72.2182C0.724858 72.0625 0.465178 71.824 0.283739 71.5294C0.1023 71.2347 0.00622867 70.8955 0.00622867 70.5495C0.00622867 70.2035 0.1023 69.8642 0.283739 69.5696C0.465178 69.2749 0.724858 69.0365 1.03385 68.8807L11.7588 63.5182L44.9901 80.137C48.1463 81.712 51.8651 81.712 55.0151 80.137L88.2464 63.512L88.2526 63.5182ZM48.3338 0.393224C48.8521 0.134616 49.4234 0 50.0026 0C50.5818 0 51.1531 0.134616 51.6714 0.393224L98.9713 24.0432C99.2801 24.2 99.5394 24.4392 99.7205 24.7342C99.9017 25.0293 99.9976 25.3688 99.9976 25.7151C99.9976 26.0614 99.9017 26.4008 99.7205 26.6959C99.5394 26.991 99.2801 27.2302 98.9713 27.387L51.6714 51.0307C51.1531 51.2893 50.5818 51.4239 50.0026 51.4239C49.4234 51.4239 48.8521 51.2893 48.3338 51.0307L1.03385 27.387C0.723221 27.2319 0.46195 26.9933 0.27934 26.698C0.0967294 26.4026 0 26.0623 0 25.7151C0 25.3679 0.0967294 25.0276 0.27934 24.7322C0.46195 24.4369 0.723221 24.1983 1.03385 24.0432L48.3338 0.393224Z" fill="black"/>
<path d="M88.2522 41.1006L98.971 46.4631C100.346 47.1506 100.346 49.1131 98.971 49.8006L51.671 73.4506C51.1527 73.7092 50.5814 73.8438 50.0022 73.8438C49.423 73.8438 48.8517 73.7092 48.3335 73.4506L1.03348 49.8006C0.724489 49.6448 0.464808 49.4064 0.28337 49.1117C0.101931 48.8171 0.00585937 48.4779 0.00585938 48.1318C0.00585937 47.7858 0.101931 47.4466 0.28337 47.1519C0.464808 46.8573 0.724489 46.6188 1.03348 46.4631L11.7585 41.1006L44.9897 57.7193C48.146 59.2943 51.8647 59.2943 55.0147 57.7193L88.246 41.1006H88.2522Z" fill="black"/>
</g>
<defs>
<clipPath id="clip0">
<rect width="100" height="100" fill="white"/>
</clipPath>
</defs>
</svg>
